<?xml version="1.0" encoding="UTF-8"?>
<svg width="361px" height="507px" viewBox="0 0 361 507" version="1.1" xmlns="http://www.w3.org/2000/svg" xmlns:xlink="http://www.w3.org/1999/xlink">
    <!-- Generator: Sketch 47.1 (45422) - http://www.bohemiancoding.com/sketch -->
    <title>yellow-white</title>
    <desc>Created with Sketch.</desc>
    <defs>
        <path d="M307.4,353.5 L341.2,353.5 L176.3,0 L167.6,0 L0.6,353.5 L34.8,353.5 L0.6,426 L34.2,426 L0.6,497 L40,497 L95.1,380.7 L247.4,380.7 L303,497 L341.2,497 L308.1,426 L341.2,426 L307.4,353.5 Z M111.3,346.5 L171.9,218.5 L232.2,346.5 L111.3,346.5 Z" id="path-1"></path>
    </defs>
    <g id="Page-1" stroke="none" stroke-width="1" fill="none" fill-rule="evenodd">
        <g id="iPhone-8" transform="translate(-48.000000, -70.000000)" fill-rule="nonzero">
            <g id="yellow-white" transform="translate(48.000000, 70.000000)">
                <g id="logo_black" transform="translate(19.000000, 10.000000)" fill="#FFFFFF">
                    <path d="M307.4,353.5 L341.2,353.5 L176.3,0 L167.6,0 L0.6,353.5 L34.8,353.5 L0.6,426 L34.2,426 L0.6,497 L40,497 L95.1,380.7 L247.4,380.7 L303,497 L341.2,497 L308.1,426 L341.2,426 L307.4,353.5 Z M111.3,346.5 L171.9,218.5 L232.2,346.5 L111.3,346.5 Z" id="Shape"></path>
                </g>
                <g id="logo_black-copy">
                    <g id="Shape-Copy">
                        <use fill="#FC2B4A" fill-rule="evenodd" xlink:href="#path-1"></use>
                        <path stroke="#FDBA00" stroke-width="10" d="M333.352289,421 L336.668286,428.112716 L341.2,421 L333.352289,421 Z M333.352358,492 L336.668269,499.11268 L341.2,492 L333.352358,492 Z M306.15164,492 L303,492 L307.510999,494.843409 L306.15164,492 Z M36.836102,492 L35.481469,494.859234 L40,492 L36.836102,492 Z M8.49782345,492 L0.6,492 L5.11946658,499.13879 L8.49782345,492 Z M8.48701029,421 L0.6,421 L5.12211255,428.13319 L8.48701029,421 Z M8.49196541,348.5 L0.6,348.5 L5.12090025,355.635758 L8.49196541,348.5 Z M333.35036,348.5 L336.668757,355.613726 L341.2,348.5 L333.35036,348.5 Z M8.49196541,348.5 L172.1209,2.13575769 L167.6,5 L176.3,5 L171.768757,2.11372557 L333.35036,348.5 L299.552289,348.5 L333.352289,421 L300.252358,421 L333.352358,492 L306.15164,492 L250.55164,375.7 L91.936102,375.7 L36.836102,492 L8.49782345,492 L42.0978234,421 L8.48701029,421 L42.6870103,348.5 L8.49196541,348.5 Z M103.400763,351.5 L171.911219,206.791446 L240.082514,351.5 L103.400763,351.5 Z"></path>
                    </g>
                </g>
            </g>
        </g>
    </g>
</svg>