<?xml version="1.0" encoding="UTF-8"?>
<svg width="361px" height="507px" viewBox="0 0 361 507" version="1.1" xmlns="http://www.w3.org/2000/svg" xmlns:xlink="http://www.w3.org/1999/xlink">
    <!-- Generator: Sketch 47.1 (45422) - http://www.bohemiancoding.com/sketch -->
    <title>Group</title>
    <desc>Created with Sketch.</desc>
    <defs></defs>
    <g id="Page-1" stroke="none" stroke-width="1" fill="none" fill-rule="evenodd">
        <g id="iPhone-8" transform="translate(-48.000000, -70.000000)" fill-rule="nonzero">
            <g id="Group" transform="translate(48.000000, 70.000000)">
                <g id="logo_black" transform="translate(19.000000, 10.000000)" fill="#FFFFFF">
                    <path d="M307.4,353.5 L341.2,353.5 L176.3,0 L167.6,0 L0.6,353.5 L34.8,353.5 L0.6,426 L34.2,426 L0.6,497 L40,497 L95.1,380.7 L247.4,380.7 L303,497 L341.2,497 L308.1,426 L341.2,426 L307.4,353.5 Z M111.3,346.5 L171.9,218.5 L232.2,346.5 L111.3,346.5 Z" id="Shape"></path>
                </g>
                <g id="logo_black-copy" fill="#FDBA00">
                    <path d="M307.4,353.5 L341.2,353.5 L176.3,0 L167.6,0 L0.6,353.5 L34.8,353.5 L0.6,426 L34.2,426 L0.6,497 L40,497 L95.1,380.7 L247.4,380.7 L303,497 L341.2,497 L308.1,426 L341.2,426 L307.4,353.5 Z M111.3,346.5 L171.9,218.5 L232.2,346.5 L111.3,346.5 Z" id="Shape-Copy"></path>
                </g>
            </g>
        </g>
    </g>
</svg>